<?xml version="1.0" encoding="utf-8"?>
<!-- Generator: Adobe Illustrator 23.1.0, SVG Export Plug-In . SVG Version: 6.00 Build 0)  -->
<svg version="1.1" id="publicdomainvectors.org" xmlns="http://www.w3.org/2000/svg" xmlns:xlink="http://www.w3.org/1999/xlink"
	 x="0px" y="0px" viewBox="0 0 660 660" style="enable-background:new 0 0 660 660;" xml:space="preserve">
<style type="text/css">
	.st0{fill-rule:evenodd;clip-rule:evenodd;fill:#A29F9D;}
	.st1{fill-rule:evenodd;clip-rule:evenodd;fill:#BEBBBB;}
	.st2{fill-rule:evenodd;clip-rule:evenodd;fill:#D6D4D4;}
	.st3{fill-rule:evenodd;clip-rule:evenodd;fill:#EDECED;}
	.st4{fill-rule:evenodd;clip-rule:evenodd;fill:#AFBE13;}
</style>
<g>
	<path class="st0" d="M174.58,212.44c-4.57,3.17-9.14,6.34-13.71,9.51c31.38,45.28,62.77,90.57,94.15,135.85
		c4.57-3.17,9.14-6.34,13.71-9.51C237.35,303.01,205.97,257.72,174.58,212.44L174.58,212.44z M520.57,212.44l-13.71,9.51
		l94.15,135.85l13.71-9.51L520.57,212.44L520.57,212.44z M59.25,212.44l-13.72,9.51l94.15,135.85l13.72-9.51L59.25,212.44
		L59.25,212.44z M405.25,212.44c-4.57,3.17-9.15,6.34-13.72,9.51c31.38,45.28,62.77,90.57,94.15,135.85
		c4.57-3.17,9.14-6.34,13.71-9.51C468.01,303.01,436.63,257.72,405.25,212.44L405.25,212.44z M289.91,212.44
		c-4.57,3.17-9.14,6.34-13.71,9.51c31.38,45.28,62.77,90.57,94.15,135.85c4.57-3.17,9.14-6.34,13.72-9.51
		C352.68,303.01,321.3,257.72,289.91,212.44z"/>
	<path class="st1" d="M485.68,212.44c4.57,3.17,9.15,6.34,13.72,9.51c-31.38,45.28-62.77,90.57-94.15,135.85
		c-4.57-3.17-9.14-6.34-13.71-9.51C422.91,303.01,454.29,257.72,485.68,212.44L485.68,212.44z M139.68,212.44l13.72,9.51
		L59.25,357.8l-13.71-9.51L139.68,212.44L139.68,212.44z M601.01,212.44l13.72,9.51L520.57,357.8l-13.71-9.51L601.01,212.44
		L601.01,212.44z M255.01,212.44c4.57,3.17,9.14,6.34,13.71,9.51c-31.38,45.28-62.76,90.57-94.15,135.85
		c-4.57-3.17-9.14-6.34-13.71-9.51C192.25,303.01,223.63,257.72,255.01,212.44L255.01,212.44z M370.35,212.44
		c4.57,3.17,9.14,6.34,13.71,9.51c-31.38,45.28-62.77,90.57-94.15,135.85c-4.57-3.17-9.14-6.34-13.72-9.51
		C307.58,303.01,338.96,257.72,370.35,212.44z"/>
	<rect x="34.16" y="205.16" class="st2" width="592.48" height="31.85"/>
	<path class="st3" d="M52.96,209.62h554.9c3.33,0,6.05,2.72,6.05,6.05v0c0,3.33-2.72,6.05-6.05,6.05H52.96
		c-3.33,0-6.05-2.72-6.05-6.05v0C46.91,212.35,49.63,209.62,52.96,209.62z"/>
	<rect x="34.16" y="341.82" class="st2" width="592.48" height="31.85"/>
	<path class="st3" d="M52.96,346.28h554.9c3.33,0,6.05,2.72,6.05,6.05l0,0c0,3.33-2.72,6.05-6.05,6.05H52.96
		c-3.33,0-6.05-2.72-6.05-6.05l0,0C46.91,349,49.63,346.28,52.96,346.28z"/>
	<g>
		<g>
			<path class="st4" d="M350.49,386.97c0,1.64-0.17,3.24-0.51,4.78"/>
			<path class="st4" d="M305.77,391.75c-0.33-1.54-0.51-3.14-0.51-4.78"/>
			<path class="st4" d="M327.88,378.05"/>
		</g>
	</g>
</g>
</svg>
